<mxfile host="app.diagrams.net" modified="2020-11-10T12:26:38.511Z" agent="5.0 (Macintosh; Intel Mac OS X 10_15_7) AppleWebKit/537.36 (KHTML, like Gecko) Chrome/86.0.4240.183 Safari/537.36" etag="LojTsqeyUl_VzQxSo-IS" version="13.9.2" type="github">
  <diagram name="Page-1" id="929967ad-93f9-6ef4-fab6-5d389245f69c">
    <mxGraphModel dx="1298" dy="8170" grid="1" gridSize="10" guides="1" tooltips="1" connect="1" arrows="1" fold="1" page="1" pageScale="1.5" pageWidth="1169" pageHeight="826" background="none" math="0" shadow="0">
      <root>
        <mxCell id="0" style=";html=1;" />
        <mxCell id="1" style=";html=1;" parent="0" />
        <mxCell id="JJN54RWJEOPsRqqfcyb3-1" value="&lt;p style=&quot;margin: 0px ; margin-top: 4px ; margin-left: 10px ; text-align: left&quot;&gt;&lt;b&gt;OpenDesk&lt;/b&gt;&lt;/p&gt;" style="html=1;strokeWidth=1;shape=mxgraph.sysml.package;html=1;overflow=fill;whiteSpace=wrap;fillColor=none;gradientColor=none;fontSize=12;align=center;labelX=327.64;textDirection=rtl;" parent="1" vertex="1">
          <mxGeometry x="320" y="-7300" width="950" height="790" as="geometry" />
        </mxCell>
        <mxCell id="JJN54RWJEOPsRqqfcyb3-5" value="" style="edgeStyle=orthogonalEdgeStyle;rounded=0;orthogonalLoop=1;jettySize=auto;html=1;" parent="1" source="JJN54RWJEOPsRqqfcyb3-3" target="JJN54RWJEOPsRqqfcyb3-4" edge="1">
          <mxGeometry relative="1" as="geometry" />
        </mxCell>
        <mxCell id="JJN54RWJEOPsRqqfcyb3-3" value="UI" style="outlineConnect=0;fontColor=#232F3E;gradientColor=none;strokeColor=#232F3E;fillColor=#ffffff;dashed=0;verticalLabelPosition=bottom;verticalAlign=top;align=center;html=1;fontSize=12;fontStyle=0;aspect=fixed;shape=mxgraph.aws4.resourceIcon;resIcon=mxgraph.aws4.mobile_client;" parent="1" vertex="1">
          <mxGeometry x="330" y="-7210" width="60" height="60" as="geometry" />
        </mxCell>
        <mxCell id="JJN54RWJEOPsRqqfcyb3-7" value="" style="edgeStyle=orthogonalEdgeStyle;rounded=0;orthogonalLoop=1;jettySize=auto;html=1;" parent="1" source="JJN54RWJEOPsRqqfcyb3-4" edge="1">
          <mxGeometry relative="1" as="geometry">
            <mxPoint x="620" y="-7080" as="targetPoint" />
          </mxGeometry>
        </mxCell>
        <mxCell id="JJN54RWJEOPsRqqfcyb3-4" value="organisation-service" style="shape=folder;tabWidth=80;tabHeight=20;tabPosition=left;strokeWidth=1;html=1;whiteSpace=wrap;align=center;fontSize=12;fontStyle=1" parent="1" vertex="1">
          <mxGeometry x="540" y="-7225" width="160" height="90" as="geometry" />
        </mxCell>
        <mxCell id="JJN54RWJEOPsRqqfcyb3-9" value="" style="edgeStyle=orthogonalEdgeStyle;rounded=0;orthogonalLoop=1;jettySize=auto;html=1;" parent="1" source="JJN54RWJEOPsRqqfcyb3-6" target="JJN54RWJEOPsRqqfcyb3-8" edge="1">
          <mxGeometry relative="1" as="geometry" />
        </mxCell>
        <mxCell id="JJN54RWJEOPsRqqfcyb3-6" value="&lt;p&gt;&amp;lt;&amp;lt;organisation-service&amp;gt;&amp;gt;&lt;/p&gt;&lt;p&gt;RestController&lt;/p&gt;" style="shape=rect;html=1;overflow=fill;whiteSpace=wrap;align=center;fontStyle=1" parent="1" vertex="1">
          <mxGeometry x="540" y="-7080" width="160" height="80" as="geometry" />
        </mxCell>
        <mxCell id="JJN54RWJEOPsRqqfcyb3-12" value="" style="edgeStyle=orthogonalEdgeStyle;rounded=0;orthogonalLoop=1;jettySize=auto;html=1;" parent="1" edge="1">
          <mxGeometry relative="1" as="geometry">
            <mxPoint x="620" y="-6660" as="sourcePoint" />
            <mxPoint x="620" y="-6650" as="targetPoint" />
            <Array as="points">
              <mxPoint x="620" y="-6730" />
              <mxPoint x="620" y="-6730" />
            </Array>
          </mxGeometry>
        </mxCell>
        <mxCell id="JJN54RWJEOPsRqqfcyb3-19" value="" style="edgeStyle=orthogonalEdgeStyle;rounded=0;orthogonalLoop=1;jettySize=auto;html=1;" parent="1" source="JJN54RWJEOPsRqqfcyb3-8" target="JJN54RWJEOPsRqqfcyb3-17" edge="1">
          <mxGeometry relative="1" as="geometry" />
        </mxCell>
        <mxCell id="JJN54RWJEOPsRqqfcyb3-8" value="&lt;p&gt;&amp;lt;&amp;lt;organisation-service&amp;gt;&amp;gt;&lt;/p&gt;&lt;p&gt;Service&lt;/p&gt;" style="shape=rect;html=1;overflow=fill;whiteSpace=wrap;align=center;fontStyle=1" parent="1" vertex="1">
          <mxGeometry x="540" y="-6940" width="160" height="80" as="geometry" />
        </mxCell>
        <mxCell id="JJN54RWJEOPsRqqfcyb3-10" value="" style="shape=cylinder3;whiteSpace=wrap;html=1;boundedLbl=1;backgroundOutline=1;size=15;" parent="1" vertex="1">
          <mxGeometry x="590" y="-6631" width="60" height="61" as="geometry" />
        </mxCell>
        <mxCell id="JJN54RWJEOPsRqqfcyb3-11" value="organisation-db" style="text;html=1;strokeColor=none;fillColor=none;align=center;verticalAlign=middle;whiteSpace=wrap;rounded=0;" parent="1" vertex="1">
          <mxGeometry x="570" y="-6561" width="100" height="20" as="geometry" />
        </mxCell>
        <mxCell id="JJN54RWJEOPsRqqfcyb3-17" value="&lt;p&gt;&amp;lt;&amp;lt;organisation-service&amp;gt;&amp;gt;&lt;/p&gt;&lt;p&gt;repository&lt;/p&gt;" style="shape=rect;html=1;overflow=fill;whiteSpace=wrap;align=center;fontStyle=1" parent="1" vertex="1">
          <mxGeometry x="540" y="-6810" width="160" height="80" as="geometry" />
        </mxCell>
        <mxCell id="JJN54RWJEOPsRqqfcyb3-29" value="" style="edgeStyle=orthogonalEdgeStyle;rounded=0;orthogonalLoop=1;jettySize=auto;html=1;" parent="1" source="JJN54RWJEOPsRqqfcyb3-20" target="JJN54RWJEOPsRqqfcyb3-28" edge="1">
          <mxGeometry relative="1" as="geometry" />
        </mxCell>
        <mxCell id="JJN54RWJEOPsRqqfcyb3-20" value="desk-service" style="shape=folder;tabWidth=80;tabHeight=20;tabPosition=left;strokeWidth=1;html=1;whiteSpace=wrap;align=center;fontSize=12;fontStyle=1" parent="1" vertex="1">
          <mxGeometry x="1040" y="-7225" width="160" height="90" as="geometry" />
        </mxCell>
        <mxCell id="JJN54RWJEOPsRqqfcyb3-27" value="" style="edgeStyle=orthogonalEdgeStyle;rounded=0;orthogonalLoop=1;jettySize=auto;html=1;textDirection=ltr;verticalAlign=top;horizontal=1;" parent="1" source="JJN54RWJEOPsRqqfcyb3-8" target="JJN54RWJEOPsRqqfcyb3-24" edge="1">
          <mxGeometry relative="1" as="geometry" />
        </mxCell>
        <mxCell id="JJN54RWJEOPsRqqfcyb3-24" value="Queue" style="outlineConnect=0;fontColor=#232F3E;gradientColor=none;strokeColor=#232F3E;fillColor=#ffffff;dashed=0;verticalLabelPosition=bottom;verticalAlign=top;align=center;html=1;fontSize=12;fontStyle=0;aspect=fixed;shape=mxgraph.aws4.resourceIcon;resIcon=mxgraph.aws4.queue;" parent="1" vertex="1">
          <mxGeometry x="810" y="-6930" width="60" height="60" as="geometry" />
        </mxCell>
        <mxCell id="JJN54RWJEOPsRqqfcyb3-28" value="&lt;p&gt;&amp;lt;&amp;lt;desk-service&amp;gt;&amp;gt;&lt;/p&gt;&lt;p&gt;Job&lt;/p&gt;" style="shape=rect;html=1;overflow=fill;whiteSpace=wrap;align=center;fontStyle=1" parent="1" vertex="1">
          <mxGeometry x="1040" y="-7090" width="160" height="80" as="geometry" />
        </mxCell>
        <mxCell id="JJN54RWJEOPsRqqfcyb3-30" value="" style="html=1;dashed=0;whitespace=wrap;fillColor=#2875E2;strokeColor=#ffffff;points=[[0.005,0.63,0],[0.1,0.2,0],[0.9,0.2,0],[0.5,0,0],[0.995,0.63,0],[0.72,0.99,0],[0.5,1,0],[0.28,0.99,0]];shape=mxgraph.kubernetes.icon;prIcon=cronjob" parent="1" vertex="1">
          <mxGeometry x="1160" y="-7041" width="30" height="31" as="geometry" />
        </mxCell>
        <mxCell id="JJN54RWJEOPsRqqfcyb3-32" value="" style="endArrow=classic;html=1;exitX=0;exitY=0.5;exitDx=0;exitDy=0;" parent="1" source="JJN54RWJEOPsRqqfcyb3-28" target="JJN54RWJEOPsRqqfcyb3-24" edge="1">
          <mxGeometry width="50" height="50" relative="1" as="geometry">
            <mxPoint x="760" y="-7010" as="sourcePoint" />
            <mxPoint x="810" y="-7060" as="targetPoint" />
          </mxGeometry>
        </mxCell>
        <mxCell id="JJN54RWJEOPsRqqfcyb3-33" value="" style="html=1;dashed=0;whitespace=wrap;fillColor=#2875E2;strokeColor=#ffffff;points=[[0.005,0.63,0],[0.1,0.2,0],[0.9,0.2,0],[0.5,0,0],[0.995,0.63,0],[0.72,0.99,0],[0.5,1,0],[0.28,0.99,0]];shape=mxgraph.kubernetes.icon;prIcon=pv" parent="1" vertex="1">
          <mxGeometry x="810" y="-7080" width="50" height="48" as="geometry" />
        </mxCell>
        <mxCell id="JJN54RWJEOPsRqqfcyb3-34" value="File Storage" style="text;html=1;strokeColor=none;fillColor=none;align=center;verticalAlign=middle;whiteSpace=wrap;rounded=0;" parent="1" vertex="1">
          <mxGeometry x="795" y="-7030" width="75" height="20" as="geometry" />
        </mxCell>
        <mxCell id="JJN54RWJEOPsRqqfcyb3-35" value="" style="edgeStyle=orthogonalEdgeStyle;rounded=0;orthogonalLoop=1;jettySize=auto;html=1;textDirection=ltr;verticalAlign=top;horizontal=1;entryX=0.005;entryY=0.63;entryDx=0;entryDy=0;entryPerimeter=0;" parent="1" target="JJN54RWJEOPsRqqfcyb3-33" edge="1">
          <mxGeometry relative="1" as="geometry">
            <mxPoint x="700" y="-6920" as="sourcePoint" />
            <mxPoint x="810" y="-6920" as="targetPoint" />
          </mxGeometry>
        </mxCell>
        <mxCell id="JJN54RWJEOPsRqqfcyb3-36" value="" style="endArrow=classic;html=1;exitX=0;exitY=0.5;exitDx=0;exitDy=0;entryX=0.995;entryY=0.63;entryDx=0;entryDy=0;entryPerimeter=0;" parent="1" source="JJN54RWJEOPsRqqfcyb3-28" target="JJN54RWJEOPsRqqfcyb3-33" edge="1">
          <mxGeometry width="50" height="50" relative="1" as="geometry">
            <mxPoint x="930" y="-7080" as="sourcePoint" />
            <mxPoint x="980" y="-7130" as="targetPoint" />
          </mxGeometry>
        </mxCell>
        <mxCell id="JJN54RWJEOPsRqqfcyb3-39" value="" style="edgeStyle=orthogonalEdgeStyle;rounded=0;orthogonalLoop=1;jettySize=auto;html=1;" parent="1" edge="1">
          <mxGeometry relative="1" as="geometry">
            <mxPoint x="1120" y="-6670" as="sourcePoint" />
            <Array as="points">
              <mxPoint x="1120" y="-6740" />
              <mxPoint x="1120" y="-6740" />
            </Array>
            <mxPoint x="1120" y="-6660" as="targetPoint" />
          </mxGeometry>
        </mxCell>
        <mxCell id="JJN54RWJEOPsRqqfcyb3-40" value="" style="edgeStyle=orthogonalEdgeStyle;rounded=0;orthogonalLoop=1;jettySize=auto;html=1;" parent="1" source="JJN54RWJEOPsRqqfcyb3-41" target="JJN54RWJEOPsRqqfcyb3-44" edge="1">
          <mxGeometry relative="1" as="geometry" />
        </mxCell>
        <mxCell id="JJN54RWJEOPsRqqfcyb3-41" value="&lt;p&gt;&amp;lt;&amp;lt;desk-service&amp;gt;&amp;gt;&lt;/p&gt;&lt;p&gt;Service&lt;/p&gt;" style="shape=rect;html=1;overflow=fill;whiteSpace=wrap;align=center;fontStyle=1" parent="1" vertex="1">
          <mxGeometry x="1040" y="-6950" width="160" height="80" as="geometry" />
        </mxCell>
        <mxCell id="JJN54RWJEOPsRqqfcyb3-42" value="" style="shape=cylinder3;whiteSpace=wrap;html=1;boundedLbl=1;backgroundOutline=1;size=15;" parent="1" vertex="1">
          <mxGeometry x="1090" y="-6640" width="60" height="61" as="geometry" />
        </mxCell>
        <mxCell id="JJN54RWJEOPsRqqfcyb3-43" value="desk-db" style="text;html=1;strokeColor=none;fillColor=none;align=center;verticalAlign=middle;whiteSpace=wrap;rounded=0;" parent="1" vertex="1">
          <mxGeometry x="1100" y="-6561" width="50" height="20" as="geometry" />
        </mxCell>
        <mxCell id="JJN54RWJEOPsRqqfcyb3-44" value="&lt;p&gt;&amp;lt;&amp;lt;desk-service&amp;gt;&amp;gt;&lt;/p&gt;&lt;p&gt;repository&lt;/p&gt;" style="shape=rect;html=1;overflow=fill;whiteSpace=wrap;align=center;fontStyle=1" parent="1" vertex="1">
          <mxGeometry x="1040" y="-6820" width="160" height="80" as="geometry" />
        </mxCell>
        <mxCell id="JJN54RWJEOPsRqqfcyb3-47" value="/organisation" style="text;html=1;strokeColor=none;fillColor=none;align=center;verticalAlign=middle;whiteSpace=wrap;rounded=0;" parent="1" vertex="1">
          <mxGeometry x="430" y="-7210" width="40" height="20" as="geometry" />
        </mxCell>
        <mxCell id="JJN54RWJEOPsRqqfcyb3-48" value="PUT" style="text;html=1;strokeColor=none;fillColor=none;align=center;verticalAlign=middle;whiteSpace=wrap;rounded=0;" parent="1" vertex="1">
          <mxGeometry x="430" y="-7170" width="40" height="20" as="geometry" />
        </mxCell>
        <mxCell id="BXeDsFxSO7m2m0fGxdSi-2" value="" style="endArrow=classic;html=1;exitX=0.842;exitY=0.367;exitDx=0;exitDy=0;exitPerimeter=0;entryX=0.5;entryY=0;entryDx=0;entryDy=0;" edge="1" parent="1" source="JJN54RWJEOPsRqqfcyb3-1" target="JJN54RWJEOPsRqqfcyb3-41">
          <mxGeometry width="50" height="50" relative="1" as="geometry">
            <mxPoint x="1010" y="-6960" as="sourcePoint" />
            <mxPoint x="1060" y="-7010" as="targetPoint" />
          </mxGeometry>
        </mxCell>
      </root>
    </mxGraphModel>
  </diagram>
</mxfile>
